<svg xmlns="http://www.w3.org/2000/svg" viewBox="0 0 600 380" font-family="system-ui,-apple-system,sans-serif">
  <defs>
    <filter id="shadow" x="-10%" y="-10%" width="120%" height="120%">
      <feDropShadow dx="0" dy="2" stdDeviation="6" flood-color="#0E2A47" flood-opacity="0.08"/>
    </filter>
  </defs>
  <rect width="600" height="380" fill="#F7F9FC"/>
  <!-- Sidebar -->
  <rect x="0" y="0" width="110" height="380" fill="#0E2A47"/>
  <text x="20" y="32" fill="#FFF" font-size="13" font-weight="700">ReferralMax</text>
  <text x="20" y="48" fill="#F58220" font-size="9" font-weight="600" letter-spacing="1.2">ADMIN</text>
  <rect x="12" y="72" width="86" height="26" rx="5" fill="#FFF" fill-opacity="0.15"/>
  <text x="22" y="89" fill="#FFF" font-size="11" font-weight="600">📊 Overview</text>
  <text x="22" y="115" fill="#FFF" font-size="11" opacity="0.6">👥 Affiliates</text>
  <text x="22" y="140" fill="#FFF" font-size="11" opacity="0.6">🎯 Campaigns</text>
  <text x="22" y="165" fill="#FFF" font-size="11" opacity="0.6">💳 Payments</text>
  <text x="22" y="190" fill="#FFF" font-size="11" opacity="0.6">📈 Reports</text>
  <text x="22" y="215" fill="#FFF" font-size="11" opacity="0.6">⚙  Settings</text>
  <!-- Main content -->
  <text x="130" y="32" fill="#0E2A47" font-size="17" font-weight="700">Overview</text>
  <text x="130" y="48" fill="#6b7280" font-size="10">Referral program at a glance</text>
  <!-- Stat cards -->
  <g filter="url(#shadow)">
    <rect x="130" y="60" width="110" height="66" rx="10" fill="#FFF"/>
    <text x="142" y="78" fill="#6b7280" font-size="9" font-weight="600" letter-spacing="0.8">ACTIVE AFFILIATES</text>
    <text x="142" y="108" fill="#1E5BA8" font-size="22" font-weight="800">24</text>
    <rect x="250" y="60" width="110" height="66" rx="10" fill="#FFF"/>
    <text x="262" y="78" fill="#6b7280" font-size="9" font-weight="600" letter-spacing="0.8">NEW LEADS (7D)</text>
    <text x="262" y="108" fill="#1E5BA8" font-size="22" font-weight="800">18</text>
    <rect x="370" y="60" width="110" height="66" rx="10" fill="#FFF"/>
    <text x="382" y="78" fill="#6b7280" font-size="9" font-weight="600" letter-spacing="0.8">PAID OUT (MO)</text>
    <text x="382" y="108" fill="#2EB84C" font-size="22" font-weight="800">$2,450</text>
    <rect x="490" y="60" width="100" height="66" rx="10" fill="#F58220"/>
    <text x="502" y="78" fill="#FFF" font-size="9" font-weight="600" letter-spacing="0.8">PENDING APPROVALS</text>
    <text x="502" y="108" fill="#FFF" font-size="22" font-weight="800">3  →</text>
  </g>
  <!-- Recent Activity -->
  <g filter="url(#shadow)">
    <rect x="130" y="140" width="220" height="220" rx="10" fill="#FFF"/>
    <text x="146" y="162" fill="#0E2A47" font-size="12" font-weight="700">Recent Activity</text>
    <line x1="146" y1="174" x2="334" y2="174" stroke="#E2E8F0"/>
    <text x="146" y="192" fill="#0E2A47" font-size="10" font-weight="600">🔔 Sarah J. — used MALOU742</text>
    <text x="146" y="207" fill="#9ca3af" font-size="9">2 hours ago</text>
    <line x1="146" y1="218" x2="334" y2="218" stroke="#F1F5F9"/>
    <text x="146" y="236" fill="#0E2A47" font-size="10" font-weight="600">🎁 Reward sent — $400</text>
    <text x="146" y="251" fill="#9ca3af" font-size="9">Today · John Lopez</text>
    <line x1="146" y1="262" x2="334" y2="262" stroke="#F1F5F9"/>
    <text x="146" y="280" fill="#0E2A47" font-size="10" font-weight="600">✅ Service completed</text>
    <text x="146" y="295" fill="#9ca3af" font-size="9">Yesterday · AC Install</text>
    <line x1="146" y1="306" x2="334" y2="306" stroke="#F1F5F9"/>
    <text x="146" y="324" fill="#0E2A47" font-size="10" font-weight="600">📞 New lead — Ben Tate</text>
    <text x="146" y="339" fill="#9ca3af" font-size="9">3 days ago</text>
  </g>
  <!-- Pipeline -->
  <g filter="url(#shadow)">
    <rect x="360" y="140" width="230" height="220" rx="10" fill="#FFF"/>
    <text x="376" y="162" fill="#0E2A47" font-size="12" font-weight="700">Pipeline Breakdown</text>
    <line x1="376" y1="174" x2="574" y2="174" stroke="#E2E8F0"/>
    <text x="376" y="196" fill="#4A5568" font-size="10">New Lead</text>
    <text x="564" y="196" fill="#0E2A47" font-size="10" font-weight="700" text-anchor="end">12</text>
    <rect x="376" y="202" width="190" height="5" rx="2" fill="#E2E8F0"/>
    <rect x="376" y="202" width="160" height="5" rx="2" fill="#1E5BA8"/>

    <text x="376" y="228" fill="#4A5568" font-size="10">Scheduled</text>
    <text x="564" y="228" fill="#0E2A47" font-size="10" font-weight="700" text-anchor="end">8</text>
    <rect x="376" y="234" width="190" height="5" rx="2" fill="#E2E8F0"/>
    <rect x="376" y="234" width="110" height="5" rx="2" fill="#1E5BA8"/>

    <text x="376" y="260" fill="#4A5568" font-size="10">Service Completed</text>
    <text x="564" y="260" fill="#0E2A47" font-size="10" font-weight="700" text-anchor="end">6</text>
    <rect x="376" y="266" width="190" height="5" rx="2" fill="#E2E8F0"/>
    <rect x="376" y="266" width="80" height="5" rx="2" fill="#2EB84C"/>

    <text x="376" y="292" fill="#4A5568" font-size="10">Payment Received</text>
    <text x="564" y="292" fill="#0E2A47" font-size="10" font-weight="700" text-anchor="end">5</text>
    <rect x="376" y="298" width="190" height="5" rx="2" fill="#E2E8F0"/>
    <rect x="376" y="298" width="66" height="5" rx="2" fill="#2EB84C"/>

    <text x="376" y="324" fill="#4A5568" font-size="10">Reward Sent 🎁</text>
    <text x="564" y="324" fill="#0E2A47" font-size="10" font-weight="700" text-anchor="end">4</text>
    <rect x="376" y="330" width="190" height="5" rx="2" fill="#E2E8F0"/>
    <rect x="376" y="330" width="53" height="5" rx="2" fill="#F58220"/>
  </g>
</svg>
