<svg xmlns="http://www.w3.org/2000/svg" viewBox="0 0 600 420" font-family="system-ui,-apple-system,sans-serif">
  <defs>
    <filter id="s6" x="-10%" y="-10%" width="120%" height="120%">
      <feDropShadow dx="0" dy="10" stdDeviation="14" flood-color="#0E2A47" flood-opacity="0.2"/>
    </filter>
    <linearGradient id="codeBg2" x1="0" y1="0" x2="1" y2="1">
      <stop offset="0" stop-color="#E8EEF7"/>
      <stop offset="1" stop-color="#FFF"/>
    </linearGradient>
  </defs>
  <rect width="600" height="420" fill="#F7F9FC"/>

  <!-- Phone frame -->
  <g filter="url(#s6)">
    <rect x="215" y="20" width="170" height="380" rx="24" fill="#111"/>
    <rect x="221" y="26" width="158" height="368" rx="18" fill="#FFF"/>
    <!-- Notch -->
    <rect x="272" y="30" width="56" height="14" rx="7" fill="#111"/>

    <!-- Status bar -->
    <text x="232" y="58" fill="#111" font-size="8" font-weight="600">11:02</text>
    <text x="372" y="58" fill="#111" font-size="8" font-weight="600" text-anchor="end">●●●●</text>

    <!-- Mobile top bar -->
    <rect x="221" y="68" width="158" height="28" fill="#FFF"/>
    <text x="232" y="86" fill="#0E2A47" font-size="10">☰</text>
    <text x="300" y="86" fill="#0E2A47" font-size="10" font-weight="700" text-anchor="middle">Instant H&amp;A</text>

    <!-- Content -->
    <text x="232" y="114" fill="#0E2A47" font-size="11" font-weight="700">Hi Sarah!</text>
    <text x="232" y="125" fill="#6b7280" font-size="7">Your referrals at a glance</text>

    <!-- Stat cards mobile stack -->
    <rect x="232" y="134" width="136" height="42" rx="6" fill="#F0FDF4"/>
    <text x="240" y="148" fill="#6b7280" font-size="6" font-weight="700" letter-spacing="0.6">EARNED</text>
    <text x="240" y="168" fill="#2EB84C" font-size="14" font-weight="800">$1,847</text>

    <rect x="232" y="182" width="136" height="42" rx="6" fill="#E8EEF7"/>
    <text x="240" y="196" fill="#6b7280" font-size="6" font-weight="700" letter-spacing="0.6">REFERRALS</text>
    <text x="240" y="216" fill="#1E5BA8" font-size="14" font-weight="800">34</text>

    <!-- Code -->
    <rect x="232" y="230" width="136" height="50" rx="6" fill="url(#codeBg2)"/>
    <text x="240" y="244" fill="#6b7280" font-size="6" font-weight="700" letter-spacing="0.6">YOUR CODE</text>
    <text x="240" y="266" fill="#0E2A47" font-size="14" font-weight="800" letter-spacing="1.5">SARJOH742</text>

    <!-- Tiny QR -->
    <rect x="232" y="286" width="40" height="40" fill="#0E2A47"/>
    <g fill="#FFF">
      <rect x="234" y="288" width="7" height="7"/>
      <rect x="263" y="288" width="7" height="7"/>
      <rect x="234" y="317" width="7" height="7"/>
      <rect x="244" y="294" width="3" height="3"/>
      <rect x="251" y="298" width="4" height="3"/>
      <rect x="259" y="294" width="4" height="4"/>
      <rect x="244" y="304" width="2" height="2"/>
      <rect x="249" y="304" width="6" height="3"/>
      <rect x="258" y="307" width="3" height="3"/>
      <rect x="244" y="313" width="4" height="2"/>
      <rect x="250" y="312" width="2" height="5"/>
      <rect x="257" y="315" width="4" height="3"/>
    </g>

    <!-- Action buttons -->
    <rect x="276" y="286" width="92" height="18" rx="4" fill="#0E2A47"/>
    <text x="322" y="298" fill="#FFF" font-size="7" font-weight="600" text-anchor="middle">💬 Send Text</text>
    <rect x="276" y="308" width="92" height="18" rx="4" fill="#FFF" stroke="#CBD5E0"/>
    <text x="322" y="320" fill="#0E2A47" font-size="7" font-weight="600" text-anchor="middle">✉️ Send Email</text>

    <!-- Recent -->
    <text x="232" y="346" fill="#0E2A47" font-size="8" font-weight="700">Recent referrals</text>
    <text x="232" y="361" fill="#2EB84C" font-size="6.5">✅ Bo J. — $400 earned</text>
    <text x="232" y="374" fill="#2EB84C" font-size="6.5">✅ Jane D. — $400 earned</text>
    <text x="232" y="387" fill="#F58220" font-size="6.5">🕒 Gert H. — scheduled</text>
  </g>

  <text x="300" y="415" fill="#6b7280" font-size="10" text-anchor="middle" font-weight="600">Full mobile-friendly affiliate portal</text>
</svg>
